<svg width="11" height="11" viewBox="0 0 11 11" fill="none" xmlns="http://www.w3.org/2000/svg">
<path d="M10.953 0.304721C10.8645 0.101656 10.7112 0.000109454 10.4925 0H0.507242C0.288842 0 0.135364 0.101656 0.0469436 0.304721C-0.041422 0.518184 -0.00505384 0.70059 0.156212 0.851582L4.00225 4.70309V8.49993C4.00225 8.63551 4.05167 8.75255 4.15045 8.85166L6.14742 10.8515C6.24111 10.9504 6.35809 11 6.49856 11C6.56091 11 6.62589 10.9869 6.69352 10.9609C6.89642 10.8723 6.9979 10.7187 6.9979 10.4999V4.70312L10.8438 0.85161C11.0051 0.700617 11.0414 0.518266 10.953 0.304721Z" fill="#909090"/>
</svg>
