<svg width="9" height="10" viewBox="0 0 9 10" fill="none" xmlns="http://www.w3.org/2000/svg">
<path d="M3.71511 7.85711H2.65487V0.178568C2.65487 0.126518 2.63835 0.0836547 2.6052 0.0502124C2.57207 0.0167896 2.52977 0 2.47819 0H1.41795C1.36644 0 1.32402 0.0167114 1.29093 0.0501928C1.25788 0.0837133 1.24126 0.126518 1.24126 0.178548V7.85709H0.181002C0.100079 7.85709 0.0448601 7.89427 0.0153842 7.96866C-0.014111 8.03943 -0.00117178 8.1045 0.0540085 8.16403L1.82103 9.94981C1.86157 9.98317 1.90383 9.99988 1.94805 9.99988C1.9959 9.99988 2.03825 9.98317 2.07506 9.94981L3.83657 8.16964C3.87344 8.1251 3.89181 8.0803 3.89181 8.03587C3.89181 7.98357 3.87529 7.9409 3.84214 7.90719C3.80899 7.87384 3.76671 7.85711 3.71511 7.85711Z" fill="#909090"/>
<path d="M8.61312 9.40844L7.3431 5.71414H6.44858L5.17862 9.40849H4.79218V10H6.37688V9.40844H5.96274L6.22226 8.60492H7.56417L7.82363 9.40844H7.40962V10H9V9.40844H8.61312ZM6.40442 7.99109L6.80751 6.77454C6.82221 6.72992 6.83611 6.67594 6.84896 6.61275C6.86172 6.54954 6.86822 6.51604 6.86822 6.51234L6.88476 6.40064H6.90686C6.90686 6.41563 6.91056 6.45281 6.91773 6.51234L6.98413 6.77454L7.38167 7.99109H6.40442Z" fill="#909090"/>
<path d="M8.50829 2.98548H7.84031V3.64953H6.4708C6.39341 3.64953 6.33827 3.65143 6.30532 3.65516L6.22787 3.67185V3.65516L6.28864 3.5993C6.34378 3.53242 6.38251 3.48406 6.40461 3.45425L8.44209 0.496651V0H5.31118V1.27802H5.97379V0.636245H7.25479C7.32105 0.636245 7.37631 0.630616 7.42035 0.619455C7.4314 0.619455 7.44522 0.618517 7.46178 0.616641C7.47832 0.614803 7.49033 0.613826 7.49764 0.613826V0.630537L7.43689 0.68073C7.40385 0.714212 7.36513 0.764444 7.32092 0.831426L5.28345 3.7834V4.28566H8.50829V2.98548Z" fill="#909090"/>
</svg>
