<svg width="15" height="12" viewBox="0 0 15 12" fill="none" xmlns="http://www.w3.org/2000/svg">
<path d="M13.8386 0.0438736L0.314126 4.79844C-0.123935 4.95246 -0.0973965 5.51956 0.353535 5.63966L3.79026 6.55519L5.07285 10.2267C5.20683 10.6102 5.74554 10.7264 6.05739 10.4392L7.83426 8.80246L11.3206 11.1111C11.7473 11.3936 12.3549 11.1837 12.4633 10.7164L14.7723 0.757185C14.8854 0.269353 14.3534 -0.137086 13.8386 0.0438736ZM12.143 2.25407L5.86097 7.26562C5.79835 7.31559 5.7585 7.38473 5.74918 7.45967L5.50731 9.39931C5.49941 9.46256 5.40129 9.47093 5.38035 9.41016L4.38524 6.51748C4.33967 6.38504 4.39909 6.24156 4.5297 6.16849L11.9482 2.01778C12.1188 1.92226 12.2934 2.13412 12.143 2.25407Z" fill="white"/>
</svg>
