<svg width="19" height="19" viewBox="0 0 19 19" fill="none" xmlns="http://www.w3.org/2000/svg">
<path d="M18.1463 4.86118L18.1409 4.83987C17.7049 3.09767 15.7392 1.22819 13.9339 0.839261L13.9136 0.835117C10.9937 0.284575 8.03312 0.284575 5.11385 0.835117L5.09289 0.839261C3.28826 1.22819 1.32252 3.09767 0.885887 4.83987L0.881096 4.86118C0.342044 7.29422 0.342044 9.7616 0.881096 12.1946L0.885887 12.216C1.30389 13.8838 3.12325 15.6674 4.8611 16.1579V18.1027C4.8611 18.8065 5.72897 19.1523 6.2225 18.6443L8.2161 16.5961C8.64848 16.6201 9.0811 16.6334 9.51372 16.6334C10.9835 16.6334 12.4539 16.496 13.9136 16.2208L13.9339 16.2166C15.7392 15.8277 17.7049 13.9582 18.1409 12.216L18.1463 12.1947C18.6854 9.7616 18.6854 7.29422 18.1463 4.86118ZM16.5687 11.8418C16.2776 12.9784 14.785 14.3915 13.5991 14.6525C12.0466 14.9443 10.4818 15.0691 8.91854 15.0263C8.88746 15.0254 8.85757 15.0373 8.83589 15.0594C8.61404 15.2844 7.38027 16.5362 7.38027 16.5362L5.83199 18.1068C5.71879 18.2234 5.51994 18.1441 5.51994 17.983V14.7614C5.51994 14.7081 5.48149 14.6629 5.4286 14.6527C5.4283 14.6526 5.428 14.6525 5.4277 14.6525C4.24179 14.3914 2.74981 12.9784 2.45812 11.8418C1.97298 9.64255 1.97298 7.41315 2.45812 5.21394C2.74981 4.07734 4.24179 2.66428 5.4277 2.40322C8.13913 1.89352 10.8883 1.89352 13.5991 2.40322C14.7856 2.66428 16.2776 4.07734 16.5687 5.21394C17.0544 7.41321 17.0544 9.64261 16.5687 11.8418Z" fill="white"/>
<path d="M12.0934 13.3289C11.9111 13.2742 11.7374 13.2375 11.576 13.1713C9.90399 12.4857 8.36518 11.6011 7.14626 10.2452C6.4531 9.47413 5.91057 8.60362 5.45196 7.68238C5.23448 7.2455 5.05121 6.79151 4.86439 6.34048C4.69405 5.92917 4.94495 5.50425 5.20915 5.19435C5.45705 4.90351 5.77605 4.68092 6.12152 4.51688C6.39117 4.38884 6.65716 4.46266 6.85409 4.68856C7.27983 5.17694 7.67088 5.69031 7.98754 6.25642C8.18226 6.60462 8.12883 7.03026 7.77593 7.26723C7.69017 7.32483 7.612 7.39243 7.5321 7.45749C7.46203 7.5145 7.39608 7.5721 7.34805 7.64929C7.26024 7.79054 7.25605 7.95712 7.31259 8.11068C7.74778 9.29275 8.48131 10.2119 9.68508 10.707C9.8777 10.7862 10.0712 10.8784 10.2931 10.8529C10.6647 10.8099 10.785 10.407 11.0455 10.1965C11.3 9.99081 11.6253 9.98809 11.8995 10.1596C12.1738 10.3311 12.4396 10.5153 12.7039 10.7014C12.9633 10.8841 13.2216 11.0628 13.4608 11.2711C13.6909 11.4714 13.7701 11.7341 13.6406 12.0059C13.4034 12.5036 13.0583 12.9177 12.5604 13.182C12.4199 13.2565 12.252 13.2807 12.0934 13.3289C11.9111 13.2742 12.252 13.2807 12.0934 13.3289Z" fill="white"/>
<path d="M9.51827 3.94775C11.7053 4.00831 13.5016 5.44286 13.8866 7.57991C13.9522 7.94404 13.9755 8.31633 14.0047 8.68591C14.017 8.84136 13.9279 8.98906 13.7582 8.99107C13.5828 8.99315 13.504 8.84817 13.4926 8.69278C13.4701 8.38518 13.4544 8.07623 13.4115 7.77118C13.1851 6.16093 11.886 4.82874 10.2644 4.54287C10.0204 4.49983 9.77061 4.48853 9.52342 4.46289C9.36716 4.44667 9.1625 4.43732 9.12788 4.24534C9.09883 4.08438 9.23629 3.95622 9.39135 3.94799C9.43352 3.94568 9.47592 3.94757 9.51827 3.94775C11.7053 4.00831 9.47592 3.94757 9.51827 3.94775Z" fill="white"/>
<path d="M12.8419 8.20623C12.8384 8.23322 12.8364 8.29668 12.8204 8.35647C12.7624 8.57349 12.4295 8.60066 12.3528 8.38163C12.3301 8.31663 12.3267 8.24269 12.3266 8.17272C12.3258 7.71488 12.2252 7.25752 11.9916 6.85917C11.7514 6.44976 11.3846 6.10558 10.9543 5.89732C10.6941 5.77141 10.4127 5.69315 10.1276 5.6465C10.0029 5.62614 9.87698 5.61376 9.75174 5.59654C9.59997 5.5757 9.51893 5.48009 9.52612 5.33228C9.53283 5.19375 9.63525 5.09412 9.78798 5.10265C10.2899 5.13083 10.7747 5.23803 11.2209 5.47157C12.1283 5.94652 12.6466 6.6962 12.7979 7.69724C12.8048 7.74259 12.8158 7.78752 12.8192 7.83304C12.8278 7.94546 12.8332 8.05799 12.8419 8.20623C12.8384 8.23322 12.8332 8.05799 12.8419 8.20623Z" fill="white"/>
<path d="M11.4816 8.15389C11.2986 8.15715 11.2007 8.05705 11.1818 7.89123C11.1687 7.77562 11.1584 7.65847 11.1305 7.54599C11.0755 7.32447 10.9563 7.11917 10.7678 6.98343C10.6788 6.91932 10.5779 6.87261 10.4723 6.84248C10.338 6.80418 10.1987 6.81472 10.0647 6.78228C9.91932 6.74705 9.83889 6.63067 9.86177 6.49582C9.88255 6.3731 10.0034 6.27732 10.139 6.28702C10.9869 6.34752 11.593 6.7808 11.6795 7.76739C11.6856 7.83701 11.6927 7.91059 11.6771 7.97719C11.6503 8.0912 11.5649 8.14833 11.4816 8.15389C11.2986 8.15715 11.5649 8.14833 11.4816 8.15389Z" fill="white"/>
</svg>
