<svg width="18" height="17" viewBox="0 0 18 17" fill="none" xmlns="http://www.w3.org/2000/svg">
<path d="M0.756836 16.0833L1.90755 12.094C1.16757 10.8669 0.777971 9.47079 0.777971 8.03656C0.777971 3.6205 4.45864 0.027771 8.9828 0.027771C13.507 0.027771 17.1876 3.6205 17.1876 8.03656C17.1876 12.4526 13.507 16.0453 8.9828 16.0453C7.5731 16.0453 6.19274 15.6931 4.9716 15.0243L0.756836 16.0833ZM5.18707 13.5673L5.43822 13.717C6.5029 14.3514 7.72863 14.6868 8.9828 14.6868C12.7395 14.6868 15.7958 11.7035 15.7958 8.03656C15.7958 4.36961 12.7395 1.38633 8.9828 1.38633C5.2261 1.38633 2.16978 4.36961 2.16978 8.03656C2.16978 9.31425 2.54181 10.555 3.24555 11.6247L3.41468 11.8818L2.75202 14.1791L5.18707 13.5673Z" fill="white"/>
</svg>
